<svg width="13" height="12" viewBox="0 0 13 12" fill="none" xmlns="http://www.w3.org/2000/svg">
<g clip-path="url(#clip0_43_701)">
<path d="M8.29603 1.51341C7.83993 1.02099 7.2029 0.749817 6.49978 0.749817C5.7929 0.749817 5.15376 1.01935 4.69978 1.50872C4.24087 2.00349 4.01728 2.67591 4.06978 3.402C4.17384 4.8345 5.26392 5.99981 6.49978 5.99981C7.73564 5.99981 8.82384 4.83474 8.92954 3.40247C8.98274 2.68294 8.75774 2.01193 8.29603 1.51341Z" fill="#718096"/>
<path d="M10.6249 11.2493H2.37489C2.2669 11.2507 2.15996 11.228 2.06185 11.1829C1.96374 11.1377 1.87691 11.0713 1.8077 10.9884C1.65536 10.8063 1.59395 10.5576 1.63942 10.3061C1.83723 9.2088 2.45458 8.287 3.42489 7.63989C4.28692 7.06544 5.37887 6.74927 6.49989 6.74927C7.6209 6.74927 8.71285 7.06567 9.57488 7.63989C10.5452 8.28677 11.1625 9.20856 11.3604 10.3059C11.4058 10.5574 11.3444 10.8061 11.1921 10.9882C11.1229 11.0711 11.0361 11.1376 10.938 11.1828C10.8398 11.2279 10.7329 11.2506 10.6249 11.2493Z" fill="#718096"/>
</g>
<defs>
<clipPath id="clip0_43_701">
<rect width="12" height="12" fill="white" transform="translate(0.5)"/>
</clipPath>
</defs>
</svg>
