<svg width="13" height="12" viewBox="0 0 13 12" fill="none" xmlns="http://www.w3.org/2000/svg">
<g clip-path="url(#clip0_63_453)">
<path d="M8.29627 1.51341C7.84018 1.02099 7.20315 0.749817 6.50002 0.749817C5.79315 0.749817 5.15401 1.01935 4.70002 1.50872C4.24112 2.00349 4.01752 2.67591 4.07002 3.402C4.17409 4.8345 5.26416 5.99981 6.50002 5.99981C7.73588 5.99981 8.82408 4.83474 8.92979 3.40247C8.98299 2.68294 8.75799 2.01193 8.29627 1.51341Z" fill="white"/>
<path d="M10.6246 11.2493H2.37465C2.26666 11.2507 2.15972 11.228 2.06161 11.1829C1.96349 11.1377 1.87667 11.0713 1.80746 10.9884C1.65511 10.8063 1.59371 10.5576 1.63918 10.3061C1.83699 9.2088 2.45433 8.287 3.42464 7.63989C4.28668 7.06544 5.37863 6.74927 6.49964 6.74927C7.62066 6.74927 8.71261 7.06567 9.57464 7.63989C10.545 8.28677 11.1623 9.20856 11.3601 10.3059C11.4056 10.5574 11.3442 10.8061 11.1918 10.9882C11.1226 11.0711 11.0358 11.1376 10.9377 11.1828C10.8396 11.2279 10.7326 11.2506 10.6246 11.2493V11.2493Z" fill="white"/>
</g>
<defs>
<clipPath id="clip0_63_453">
<rect width="12" height="12" fill="white" transform="translate(0.5)"/>
</clipPath>
</defs>
</svg>
