<svg width="13" height="13" viewBox="0 0 13 13" fill="none" xmlns="http://www.w3.org/2000/svg">
<path d="M12.131 11.0973L9.37451 8.34076C10.0382 7.45726 10.3964 6.38187 10.3952 5.27689C10.3952 2.45443 8.09892 0.158142 5.27646 0.158142C2.454 0.158142 0.157715 2.45443 0.157715 5.27689C0.157715 8.09935 2.454 10.3956 5.27646 10.3956C6.38145 10.3968 7.45684 10.0386 8.34033 9.37494L11.0969 12.1315C11.2364 12.2562 11.4184 12.3228 11.6055 12.3176C11.7926 12.3123 11.9706 12.2357 12.1029 12.1033C12.2352 11.971 12.3119 11.793 12.3171 11.6059C12.3224 11.4188 12.2558 11.2368 12.131 11.0973ZM1.62021 5.27689C1.62021 4.55375 1.83465 3.84685 2.2364 3.24559C2.63816 2.64432 3.20918 2.17569 3.87728 1.89896C4.54537 1.62222 5.28052 1.54982 5.98976 1.6909C6.699 1.83197 7.35048 2.1802 7.86182 2.69153C8.37316 3.20287 8.72138 3.85435 8.86246 4.56359C9.00353 5.27283 8.93113 6.00798 8.6544 6.67607C8.37766 7.34417 7.90903 7.91519 7.30777 8.31695C6.7065 8.7187 5.9996 8.93314 5.27646 8.93314C4.30712 8.93197 3.37782 8.54639 2.69239 7.86096C2.00696 7.17554 1.62138 6.24623 1.62021 5.27689Z" fill="#2D3748"/>
</svg>
